#!OML:ASF E:\Style6\Style6.ASF
:FULLY-SPECIFIED
:DEGREES
1518
root 0.642128 18.2636 0.815321 12.8561 -0.857969 -1.16569
lowerback 1.07613 -2.88642 4.18489
upperback -6.59855 -3.26942 6.57903
thorax -7.38676 -1.64631 4.84985
lowerneck -12.1128 -0.357227 1.49737
upperneck 23.7556 1.09877 -8.04367
head 9.54127 -0.258959 -2.92415
rclavicle -4.17448e-015 2.38542e-014
rhumerus 14.5596 -40.327 -1.64129
rradius 47.9775
rwrist 19.835
rhand 20.5789 -3.66482
rfingers 7.12502
rthumb 45.074 -27.1352
lclavicle -4.17448e-015 2.38542e-014
lhumerus -129.833 -53.0274 174.546
lradius 87.084
lwrist 36.7005
lhand -8.69747 10.2314
lfingers 7.12502
lthumb 17.2376 39.4868
rfemur -15.2386 13.621 15.9638
rtibia 12.0403
rfoot -8.42214 -16.8597
rtoes 3.6383
lfemur -14.9848 -12.7067 -15.6039
ltibia 15.7173
lfoot -5.65449 14.0699
ltoes -11.1933
1519
root 0.637321 18.2648 0.811977 12.9124 -0.84036 -1.20005
lowerback 1.06306 -2.90352 4.18528
upperback -6.61834 -3.29151 6.59152
thorax -7.39897 -1.65689 4.86518
lowerneck -12.1158 -0.376304 1.54688
upperneck 23.7876 1.07564 -8.09837
head 9.552 -0.272123 -2.95551
rclavicle -4.23411e-014 4.77083e-015
rhumerus 14.593 -40.3618 -1.61763
rradius 48.0848
rwrist 19.7244
rhand 20.5393 -3.69183
rfingers 7.12502
rthumb 45.0372 -27.1767
lclavicle -4.23411e-014 4.77083e-015
lhumerus -129.829 -52.9873 174.564
lradius 87.0515
lwrist 36.7525
lhand -8.72737 10.0684
lfingers 7.12502
lthumb 17.2089 39.3264
rfemur -15.3037 13.4159 16.0325
rtibia 12.0405
rfoot -8.17394 -16.7133
rtoes 2.36442
lfemur -15.0207 -12.7548 -15.5305
ltibia 15.6517
lfoot -5.5701 14.118
ltoes -11.5475
1520
root 0.632469 18.2652 0.811012 12.9827 -0.873576 -1.21198
lowerback 0.970855 -2.90559 4.1451
upperback -6.61571 -3.30359 6.60945
thorax -7.33819 -1.66059 4.90064
lowerneck -12.0556 -0.392398 1.55653
upperneck 23.7294 1.04949 -8.11149
head 9.51841 -0.282705 -2.96246
rclavicle 4.37326e-014 -9.54166e-015
rhumerus 14.6375 -40.3887 -1.58039
rradius 48.2077
rwrist 19.6368
rhand 20.4153 -3.70044
rfingers 7.12502
rthumb 44.9217 -27.2308
lclavicle 4.37326e-014 -9.54166e-015
lhumerus -129.678 -52.9921 174.457
lradius 87.002
lwrist 36.7351
lhand -8.68693 10.0152
lfingers 7.12502
lthumb 17.2478 39.2697
rfemur -15.3659 13.2667 16.0536
rtibia 11.9987
rfoot -7.87559 -16.5479
rtoes 1.16874
lfemur -15.0794 -12.7864 -15.4894
ltibia 15.6158
lfoot -5.46656 14.2046
ltoes -11.8341
1521
root 0.628106 18.2674 0.80987 13.0635 -0.90161 -1.2255
lowerback 0.871688 -2.89799 4.11078
upperback -6.62014 -3.30182 6.63555
thorax -7.28173 -1.65747 4.94066
lowerneck -12.0567 -0.411001 1.5327
upperneck 23.7208 1.02655 -8.1062
head 9.51428 -0.294854 -2.9589
rclavicle -6.22693e-014 -4.77083e-015
rhumerus 14.6365 -40.4022 -1.44823
rradius 48.329
rwrist 19.6458
rhand 20.3238 -3.56147
rfingers 7.12502
rthumb 44.8366 -27.1251
lclavicle -6.22693e-014 -4.77083e-015
lhumerus -129.499 -53.0189 174.37
lradius 86.9563
lwrist 36.729
lhand -8.60824 10.0851
lfingers 7.12502
lthumb 17.3235 39.333
rfemur -15.4308 13.1618 16.0641
rtibia 11.9405
rfoot -7.68113 -16.4406
rtoes 0.376141
lfemur -15.1551 -12.8622 -15.4452
ltibia 15.5947
lfoot -5.40917 14.3631
ltoes -11.8177
1522
root 0.623485 18.2689 0.808331 13.0796 -0.908897 -1.29451
lowerback 0.861582 -2.89299 4.13224
upperback -6.60983 -3.29288 6.68442
thorax -7.26419 -1.65281 4.97904
lowerneck -12.1756 -0.433859 1.47662
upperneck 23.8377 1.01777 -8.11739
head 9.57813 -0.309843 -2.95894
rclavicle 2.22639e-014 -1.59028e-015
rhumerus 14.6391 -40.435 -1.28538
rradius 48.4719
rwrist 19.9241
rhand 20.4678 -3.4345
rfingers 7.12502
rthumb 44.9706 -26.9456
lclavicle 2.22639e-014 -1.59028e-015
lhumerus -129.387 -53.0457 174.346
lradius 86.9651
lwrist 36.7371
lhand -8.59218 10.1827
lfingers 7.12502
lthumb 17.339 39.4292
rfemur -15.4256 13.1231 16.1511
rtibia 11.897
rfoot -7.53201 -16.4016
rtoes -0.234643
lfemur -15.1506 -12.955 -15.3486
ltibia 15.5786
lfoot -5.41448 14.4885
ltoes -11.8737
1523
root 0.617821 18.2688 0.80516 13.0728 -0.917695 -1.29621
lowerback 0.897019 -2.90232 4.07516
upperback -6.60999 -3.30373 6.71548
thorax -7.27929 -1.65368 5.04749
lowerneck -12.273 -0.458412 1.47028
upperneck 23.9788 1.00885 -8.17865
head 9.64667 -0.326134 -2.98576
rclavicle 1.81391e-014 -3.65764e-014
rhumerus 14.7815 -40.5666 -1.27948
rradius 48.5518
rwrist 20.3696
rhand 20.8348 -3.16791
rfingers 7.12502
rthumb 45.3119 -26.5435
lclavicle 1.81391e-014 -3.65764e-014
lhumerus -129.239 -53.0541 174.247
lradius 86.9701
lwrist 36.6988
lhand -8.54587 10.2148
lfingers 7.12502
lthumb 17.3835 39.4574
rfemur -15.4159 13.1243 16.165
rtibia 11.8772
rfoot -7.54625 -16.3737
rtoes 0.285386
lfemur -15.1509 -13.0472 -15.3197
ltibia 15.5836
lfoot -5.53041 14.6082
ltoes -11.5204
